<svg width="111" height="80" viewBox="0 0 111 80" fill="none" xmlns="http://www.w3.org/2000/svg">
<path d="M33.8462 0L63.1578 60H4.53452L33.8462 0Z" fill="#543D3D"/>
<path d="M53.6264 0L76.4666 48.1319H30.7861L53.6264 0Z" fill="#543D3D"/>
<path d="M87.6888 28.2454L90.3295 23.6017L94.553 20.3309L99.271 21.9265L103.587 26.2244L106.276 32.7173L106.622 39.6738L106.622 45" stroke="#543D3D" stroke-width="0.935969"/>
<path d="M93.5 29.5L90.5 27.5V25.5L93.5 23.5" stroke="#543D3D" stroke-width="0.998845"/>
<path d="M81 32.5L87.5 28L90.5 30V38L87.5 47L83.5 55L81 58" stroke="#543D3D" stroke-width="0.998845"/>
<path d="M80.5 27L85 23.5L90.5 22L94.5 25.5L97 31.5V39L94.5 46L90.5 53.5L87 58.5L80.5 62.5" stroke="#543D3D" stroke-width="0.998845"/>
<path d="M81 30.5L80 29.8333V29.1667L81 28.5" stroke="#543D3D" stroke-width="0.332948"/>
<path d="M80.5 32L99.5 20V17L98.5 15.5L97 14H96H95L93.5 15.5L92.5 17" stroke="#543D3D" stroke-width="0.998845"/>
<path d="M92.5 17L90 18.5L88 19.5L86.5 20L83.5 21L81.5 21.5L80 22H78L74.5 21.5L73 22L72 23L71 24L69 25.5L70 28M70 28L72 30L74.5 31.5L76.5 32.5H79H80M70 28L68 54L69 56.5L70 58.5L72 60.5L75 63L80 65V32.5M80 32.5L80.5 32" stroke="#543D3D" stroke-width="0.998845"/>
<path d="M80 65L80.5 65.5L100.5 48.5L99.5 20" stroke="#543D3D" stroke-width="0.998845"/>
<path d="M80 32L79 24.5H76.5H75H72.5H70.5L69.5 25" stroke="#543D3D" stroke-width="0.998845"/>
<path d="M82.125 27.875C86.393 25.4517 90.5732 22.938 94.75 20.375" stroke="#543D3D" stroke-width="2" stroke-linecap="round"/>
<path d="M80.375 31.125C85.0023 28.0594 90.2323 25.8812 94.6597 22.5139C95.9616 21.5237 97.1714 20.449 98.5 19.5" stroke="#543D3D" stroke-width="2" stroke-linecap="round"/>
<path d="M81.25 28.875C84.9478 26.5814 88.7406 24.4957 92.5417 22.3819C94.0192 21.5603 95.5581 20.6819 96.8958 19.6389C97.4816 19.1822 98.0076 18.6616 98.625 18.25" stroke="#543D3D" stroke-width="2" stroke-linecap="round"/>
<path d="M80.25 27.75C83.7484 26.7716 86.9243 24.5621 90.0486 22.7569C91.9744 21.6442 93.7671 20.3676 95.5347 19.0208C96.4449 18.3273 97.4649 17.8076 98.375 17.125" stroke="#543D3D" stroke-width="2" stroke-linecap="round"/>
<path d="M96.875 15.375C94.8548 16.5534 93.0774 18.0375 91.1667 19.375C88.9907 20.8982 86.6474 22.1203 84.1806 23.0972C82.9498 23.5847 81.6855 23.9931 80.5556 24.6944C80.3799 24.8035 80.2098 24.8305 80.125 25" stroke="#543D3D" stroke-width="2" stroke-linecap="round"/>
<path d="M80.25 26.75C83.7956 24.4423 87.572 22.7146 91.3472 20.8333C92.7201 20.1492 93.9643 19.3449 95.1944 18.4375C95.9034 17.9145 96.6451 17.4283 97.2917 16.8264C97.521 16.6128 97.7038 16.3487 98 16.25" stroke="#543D3D" stroke-width="2" stroke-linecap="round"/>
<path d="M80.5 28.875C80.5 29.2603 80.547 29.6559 80.375 30" stroke="#543D3D" stroke-width="2" stroke-linecap="round"/>
<path d="M72.125 23.5C73.7095 23.4454 75.2406 23.0106 76.8333 23C78.0902 22.9916 79.3473 23 80.6042 23C82.4237 23 84.3161 22.8445 86.0903 22.4306C87.4819 22.1058 88.6448 21.453 89.875 20.75" stroke="#543D3D" stroke-width="2" stroke-linecap="round"/>
<path d="M81 22.125C83.9643 22.0352 86.5151 20.9164 89.3472 20.25C90.45 19.9905 91.4383 19.4149 92.4236 18.875C93.1183 18.4943 94.0204 18.0298 94.5972 17.4722C95.0645 17.0205 94.8892 16.0975 95.25 15.5278C95.6729 14.8601 94.2599 15.7102 94.125 16.25" stroke="#543D3D" stroke-width="2" stroke-linecap="round"/>
<path d="M79.375 23.75C79.6347 23.8604 79.7992 23.9644 80 24.125" stroke="#543D3D" stroke-width="2" stroke-linecap="round"/>
<path d="M79.75 24.125L80.25 24.5" stroke="#543D3D" stroke-width="2" stroke-linecap="round"/>
<path d="M75.125 22.375C74.7012 22.3058 74.3014 22.25 73.875 22.25" stroke="#543D3D" stroke-width="2" stroke-linecap="round"/>
<path d="M96.25 15.75C96.32 15.3736 96.375 15.0078 96.375 14.625" stroke="#543D3D" stroke-width="2" stroke-linecap="round"/>
<path d="M88.75 26.5C90.5466 27.6486 92.3193 29.2776 93.2917 31.2222C93.4139 31.4667 93.3104 31.625 93.625 31.625" stroke="#543D3D" stroke-width="2" stroke-linecap="round"/>
<path d="M88.375 25.625C88.957 26.4777 89.4179 27.3445 90.1667 28.0694C90.5108 28.4026 90.8479 28.9304 91.2778 29.1528C91.8827 29.4657 92.0962 30.1923 92.375 30.75" stroke="#543D3D" stroke-width="2" stroke-linecap="round"/>
<path d="M88.75 28.25C89.8048 28.4689 89.1714 27.7964 88.75 27.375" stroke="#543D3D" stroke-width="2" stroke-linecap="round"/>
<path d="M88.5 27.375C91.124 29.2272 92.3449 32.274 92.4861 35.4166C92.6039 38.038 91.4696 40.3383 90.375 42.6597C89.7831 43.9148 88.9616 45.0186 88.3333 46.25C87.8291 47.2383 87.3955 48.2814 86.9514 49.2986C86.2763 50.8448 85.6012 52.2901 84.6944 53.7083C83.9228 54.9153 83.4197 55.9056 82.1528 56.6527C81.7843 56.87 81.0108 57.3351 81 57.8333C80.9741 59.0251 80.625 60.1819 80.625 61.375C80.625 62.4651 81.9023 61.0288 82.2639 60.7222C84.1489 59.1241 85.9323 57.4585 87.5972 55.6319C89.9359 53.0662 91.3792 50.1069 92.6319 46.9027C93.9446 43.5453 94.4004 40.1167 94.7292 36.5416C95.0345 33.2209 94.9062 29.7942 94.0625 26.5555C93.8657 25.8 93.5838 25.1967 93.0278 24.6527C92.8651 24.4936 92.4508 24.2167 92.5625 24.7083C92.7895 25.7071 93.6025 26.5391 94.125 27.3889C94.7422 28.3926 95.1964 29.4892 95.5486 30.6111C96.1578 32.5515 96.5862 34.7102 96.4097 36.75C96.2264 38.8679 95.4291 41.1585 94.2639 42.9305C93.2322 44.4996 92.0093 45.9449 90.8819 47.4444C89.7409 48.9622 88.8021 50.5585 87.8472 52.1944C86.8726 53.8642 85.8693 55.7518 84.2778 56.9027C83.3915 57.5437 81.2102 60.0131 81.9028 59.1666C83.835 56.805 86.0915 54.7565 88.1528 52.5139C89.2899 51.2766 90.3946 49.9677 91.1806 48.4722C91.3197 48.2074 91.391 48.0209 91.1944 48.3194C90.6181 49.1949 90.0811 50.0579 89.3403 50.8125C88.9086 51.2522 88.5933 51.498 88.0833 51.7916C87.8595 51.9205 87.4327 52.2245 87.3333 51.9861C87.2062 51.681 87.4222 51.327 87.5278 51.0139C87.9618 49.7267 88.5279 48.4849 89.1042 47.2569C89.9648 45.4229 90.7987 43.5671 91.7222 41.7639C91.8641 41.4868 93.3318 38.3224 93.1806 40.1527C93.0818 41.3478 92.9109 42.8671 92.3056 43.9305C92.2025 44.1116 92.0255 44.3397 91.7847 44.3472C91.3123 44.362 91.7089 43.3825 91.8472 42.9305C92.11 42.0723 93.33 39.8278 92.7083 38.9236C92.3149 38.3513 91.3993 38.791 91.0417 39.1527C90.7535 39.4442 90.7187 39.8924 90.4444 40.1666C90.0275 40.5835 90.706 39.0141 90.9028 38.4583C91.5314 36.6829 91.864 35.3465 91.875 33.4722C91.8896 30.9842 91.9149 28.4565 92.0278 25.9722C92.0554 25.3646 92.1884 24.378 92.4375 25.5277C92.6269 26.4021 92.8291 27.2746 93 28.1527C93.8841 32.6959 94.3332 38.3001 92 42.5" stroke="#543D3D" stroke-width="2" stroke-linecap="round"/>
<path d="M94.5 23.5L97.5 27L99 31L101 37.5V43.5L100 48L96.5 51.5H100L103 49.5L106 46.5" stroke="#543D3D" stroke-width="0.998845"/>
<path d="M106.5 44.5L105.5 46.5" stroke="#543D3D" stroke-width="0.998845"/>
<path d="M95.375 23.125C96.4238 24.2594 97.1526 25.7877 98.5833 26.4583C98.7235 26.524 99.7167 27.2899 99.75 27.2708C99.9315 27.1671 98.7199 24.7642 98.6111 24.5555C98.179 23.7264 97.6515 23.4884 97.0556 22.875C96.3665 22.1657 97.8769 22.5803 98.1389 22.6875C98.4236 22.804 98.752 22.8042 99.0278 22.9305C99.4694 23.1329 99.7764 23.6309 100.062 24C100.923 25.1103 101.545 26.178 102.125 27.4583C102.459 28.1957 102.739 28.9277 102.868 29.7292C103.044 30.8197 102.995 30.1211 102.903 29.4722C102.793 28.6985 102.706 27.9249 102.375 27.2083C101.888 26.1534 102.946 27.4677 103.104 27.7222C104.053 29.2443 104.159 30.9853 104.306 32.7222C104.486 34.8643 104.375 37.0463 104.375 39.1944C104.375 40.9902 104.667 42.7414 104.743 44.5278C104.788 45.5744 104.689 46.6121 104.069 47.5C103.795 47.8931 103.158 48.1181 102.722 48.2778C102.099 48.5063 101.645 48.9991 101.069 49.2986C100.588 49.549 99.9337 50 99.375 50" stroke="#543D3D" stroke-width="2" stroke-linecap="round"/>
<path d="M98.375 25.5C98.87 26.5982 99.4794 27.6488 99.9028 28.7778C99.9807 28.9855 100.356 29.719 100 29.125" stroke="#543D3D" stroke-width="2" stroke-linecap="round"/>
<path d="M98.75 27.125C99.3083 28.7999 99.9617 30.3998 100.688 32.0069C100.857 32.3817 100.969 32.5468 100.625 32.375" stroke="#543D3D" stroke-width="2" stroke-linecap="round"/>
<path d="M98.25 23.125C99.6674 25.6122 100.934 28.3476 101.806 31.0833C102.429 33.0393 102.7 35.1005 103 37.125" stroke="#543D3D" stroke-width="2" stroke-linecap="round"/>
<path d="M103.125 31.125C103.919 32.1128 104.842 33.6193 104.875 34.9306C104.88 35.1172 104.875 35.8695 104.875 35.25" stroke="#543D3D" stroke-width="2" stroke-linecap="round"/>
<path d="M104.625 31.75C104.869 33.0088 105.25 34.2126 105.25 35.5C105.25 36.7369 105.101 37.9542 104.944 39.1806C104.758 40.6389 104.625 42.042 104.625 43.5139C104.625 43.8027 104.578 44.151 104.681 44.4306C104.833 44.8482 105.233 44.958 105.41 44.4653C105.848 43.2431 105.5 41.4835 105.5 40.1875C105.5 38.4398 104.638 37.2342 103.681 35.8194C103.08 34.9317 102.493 33.7285 101.333 33.6181C100.747 33.5622 101.418 35.9235 101.528 36.2778C101.986 37.7608 102.07 39.2854 102.25 40.8194C102.403 42.1251 102.169 43.1821 101.847 44.4444C101.627 45.3101 101.277 46.1847 101.153 47.0694C101.102 47.4303 101.016 48.1633 101.604 47.7431C103.157 46.6338 103.592 45.1521 103.618 43.3403C103.652 40.9923 103.984 38.4639 103.542 36.1458C103.327 35.0219 102.995 32.869 101.889 32.2153C101.244 31.8342 101.25 33.303 101.25 33.625" stroke="#543D3D" stroke-width="2" stroke-linecap="round"/>
<path d="M93.25 43.75C93.0703 44.0803 91.6239 46.5771 91.3333 45.2917C91.2417 44.8866 91.1132 43.9338 91.4861 43.6111C91.7237 43.4055 92.2738 43.5 92.5555 43.5C92.9801 43.5 94.0611 43.2764 94.3194 43.75C94.4212 43.9366 94.4214 44.1643 94.25 44.25" stroke="#543D3D" stroke-width="2" stroke-linecap="round"/>
<path d="M99.375 50.625C99.109 50.6848 98.9557 50.7516 98.75 50.875" stroke="#543D3D" stroke-linecap="round"/>
<path d="M99.5 50.5C99.9539 50.4676 100.033 50.3531 100.375 50.125" stroke="#543D3D" stroke-linecap="round"/>
<path d="M80.625 64.25C81.9503 63.1377 83.2729 62.0021 84.5694 60.8611C85.2124 60.2953 86.0561 59.4223 86.375 58.625" stroke="#543D3D" stroke-linecap="round"/>
<path d="M80.75 63C81.1768 62.4525 81.5887 62.1601 82.125 61.75" stroke="#543D3D" stroke-linecap="round"/>
<path d="M81.125 62.75C82.1541 62.162 83.2046 61.5401 84.0903 60.7431C84.7812 60.1212 85.1085 59.3185 85.5 58.5" stroke="#543D3D" stroke-linecap="round"/>
<path d="M70.5 29.875C71.1601 31.8741 72.8778 33.6525 75.0694 33.8681C76.3491 33.9939 77.6109 34.1643 78.875 34.375" stroke="#543D3D" stroke-linecap="round"/>
<path d="M75.5 35.25C75.3608 37.0989 75.2452 38.9488 75.1181 40.7986C74.9989 42.5328 75.0085 44.4383 74.5833 46.1389C74.3564 47.0468 74.5064 44.2686 74.4722 43.3333C74.3953 41.2275 74.1208 39.1743 73.7014 37.1111C73.4668 35.9569 73.407 34.3712 72.6875 33.375C72.332 32.8827 72.1091 32.4213 71.9445 31.8333C71.7725 31.2191 73.1063 32.3101 73.3264 32.4305C74.2777 32.9511 75.3721 33.3859 76.4167 33.6805C77.0863 33.8694 77.705 34.1908 78.4097 34.243C78.8194 34.2734 78.6524 34.6205 78.5903 34.9583C78.341 36.3137 78.0779 37.6618 77.8889 39.0278C77.3158 43.1697 77.3425 47.2344 77.5278 51.4028C77.6162 53.3921 77.7476 55.4163 78.0278 57.3889C78.1786 58.4507 78.1511 59.5 78.2778 60.5555C78.3532 61.1842 78.692 61.66 78.8472 62.25C79.118 63.279 78.3046 62.1167 78.0972 61.8472C76.8772 60.2612 75.4448 58.7195 74.625 56.875" stroke="#543D3D" stroke-width="3" stroke-linecap="round"/>
<path d="M79 63.375C78.8996 60.0948 78.6023 56.8231 78.5278 53.5417C78.4791 51.4 78.6158 49.2654 78.625 47.125C78.6315 45.6129 78.6565 44.0946 78.5972 42.5833C78.5564 41.5431 78.4921 40.4984 78.3611 39.4653C78.3046 39.0194 78.2738 38.0607 77.8194 37.7361C77.5838 37.5678 77.1904 37.7171 76.9375 37.7083C76.2807 37.6857 75.6301 37.3885 75.0555 37.0972C73.8267 36.4743 73.1672 35.5949 72.3055 34.5833C71.7988 33.9885 71.921 33.555 71.6805 32.8681C71.5956 32.6255 71.4183 32.3796 71.3819 32.125C71.3354 31.7991 71.4194 32.7824 71.4375 33.1111C71.5566 35.2789 71.6205 37.5497 71.4236 39.7153C71.174 42.4606 70.6968 45.1397 70.618 47.8958C70.5832 49.1147 70.442 50.3355 70.1875 51.5278C70.0333 52.2501 69.7638 53.0046 69.75 53.75C69.7116 55.8201 72.0557 57.2262 73.375 58.5C74.2281 59.3237 75.0544 60.1224 75.9722 60.875C76.4872 61.2973 77.3102 61.8657 77.6389 62.4306C78.2536 63.4872 75.3767 61.2818 74.6597 60.2917C74.0657 59.4714 73.5007 58.4319 72.743 57.75C72.1401 57.2074 70.4192 55.5646 70.8055 56.2778C71.024 56.6811 71.4822 57.1568 71.875 57.375C72.1317 57.5176 72.5211 57.76 72.6944 58C72.8125 58.1635 71.8721 57.8751 71.9653 57.8958C72.7223 58.0641 72.7864 59.0104 73.3333 59.375C73.6749 59.6027 74.3127 59.8839 74.5833 59.4306C75.1861 58.4205 75.36 56.9031 75.5416 55.7917C75.8862 53.6832 76.0607 51.5496 76.1528 49.4167C76.1749 48.9031 76.1878 48.389 76.1944 47.875C76.2079 46.8307 76.171 47.2831 76.1528 47.7083C76.0911 49.1475 76.3659 51.1293 75.7639 52.4722C75.1814 53.7715 74.9929 49.7247 74.7639 48.3194C74.6856 47.8391 74.7194 47.3081 74.4722 46.8889C74.062 46.1934 73.855 48.3907 73.6875 49.1806C73.5336 49.9058 73.4154 50.6385 73.25 51.3611C73.034 52.3047 72.8889 52.8531 72.8889 51.4861C72.8889 49.3546 72.9291 47.07 73.2986 44.9653C73.8707 41.7066 73.4875 51.6034 73.0972 54.8889C72.8933 56.6051 72.6814 53.1371 72.6805 53.125C72.5036 50.6061 72.6212 48.126 72.9305 45.625C73.1277 44.0311 73.3268 42.4469 73.4722 40.8472C73.6387 39.0162 73.3494 44.5226 73.3333 46.3611C73.3042 49.6844 73.6315 52.9664 73.7222 56.2778C73.7556 57.4962 72.389 54.8984 72.2778 54.6806C71.8268 53.7974 71.4745 52.8692 71.0278 51.9861C70.7776 51.4916 70.5071 51.5704 70.1389 51.2431C69.62 50.7818 69.9538 49.7526 70 49.1875C70.0906 48.0771 70.125 46.997 70.125 45.8819C70.125 43.7256 70.6076 41.563 70.8472 39.4306C71.0955 37.2203 71.125 35.063 71.125 32.8403C71.125 32.0158 71.0278 31.3377 71.0278 30.5" stroke="#543D3D" stroke-width="3" stroke-linecap="round"/>
</svg>
